PathFileType	4	(X/Y/Z)	C:\Users\WrightLab\Desktop\Jo\P4V132.trc
DataRate	CameraRate	NumFrames	NumMarkers	Units	OrigDataRate	OrigDataStartFrame	OrigNumFrames
100.00	100.00	       19	19	mm	100.00	385	       512
Frame#	Time	Headset_Front			Headset_Back			Headset_Left			Headset_Right			Left_Shoulder			Right_Shoulder			Sternum			C7			Left Elbow			Right Elbow			Left Wrist			Right Wrist			Left ASIS			Right ASIS			S2			Left Knee			Right Knee			Left Ankle			Right Ankle			
		X1	Y1	Z1	X2	Y2	Z2	X3	Y3	Z3	X4	Y4	Z4	X5	Y5	Z5	X6	Y6	Z6	X7	Y7	Z7	X8	Y8	Z8	X9	Y9	Z9	X10	Y10	Z10	X11	Y11	Z11	X12	Y12	Z12	X13	Y13	Z13	X14	Y14	Z14	X15	Y15	Z15	X16	Y16	Z16	X17	Y17	Z17	X18	Y18	Z18	X19	Y19	Z19	

385	3.840	-564.53790	1705.63635	-1095.86401	-389.75876	1645.95349	-1201.86182							-641.72522	1495.78772	-1047.40845	-477.69095	1433.99890	-1113.35461							-758.09723	1171.58655	-1175.94128	-243.00557	1159.20264	-854.37598	-629.59656	988.97614	-1396.80444	-197.46591	853.75940	-898.87329				-305.04095	997.15198	-1061.98901	-633.82617	995.06366	-1112.91650	-648.92426	514.60376	-1004.71686	-258.45410	538.31177	-1144.27563	-632.64807	41.95318	-803.67090	-236.35866	40.18177	-1228.84412	
386	3.850	-560.38293	1704.42163	-1102.72461	-385.67612	1644.83325	-1208.52844							-637.21661	1494.68054	-1055.79358	-473.21692	1432.65125	-1121.18005							-752.64142	1169.99390	-1183.74438	-239.63757	1159.24438	-858.98199	-621.41785	990.34100	-1403.47314	-196.68730	852.83014	-899.49152				-301.66302	995.23035	-1070.32727	-630.76373	993.57166	-1119.70142	-647.18567	514.31464	-1009.15881	-256.64285	535.96936	-1150.43311	-632.32690	43.09959	-804.27271	-228.17215	40.57203	-1243.75476	
387	3.860	-556.05933	1703.46509	-1109.79077	-381.64890	1643.71130	-1216.05884							-632.82526	1493.43823	-1063.58472	-468.81805	1431.19238	-1129.38538							-746.81329	1168.68604	-1191.66296	-236.84474	1158.84875	-863.52014	-612.47626	992.32391	-1412.30261	-195.52206	850.79077	-900.29572				-298.50772	993.80890	-1078.51294	-627.63013	992.25677	-1127.02100	-645.38910	513.96143	-1013.56744	-252.94020	533.46997	-1156.33643	-632.44318	43.44969	-806.58887	-222.18016	40.00865	-1260.52588	
388	3.870	-551.59790	1702.42139	-1116.80640	-377.19980	1643.14917	-1223.64795							-628.18359	1492.33069	-1071.71753	-464.24597	1429.71570	-1137.48120							-741.26807	1166.85791	-1198.84839	-234.49974	1157.81372	-869.76282	-604.28253	993.95551	-1421.75806	-194.81447	849.54962	-901.30438				-294.44812	992.00513	-1087.10352	-624.11108	991.25726	-1134.66260	-643.47211	513.43176	-1018.05902	-249.72015	532.58118	-1164.78040	-632.02094	44.61007	-807.01544	-216.97177	39.39326	-1273.38037	
389	3.880	-547.03802	1701.30542	-1122.96558	-372.33224	1643.32690	-1229.58447							-623.66736	1490.75769	-1079.33838	-459.57947	1428.41626	-1145.10706							-735.73944	1165.26367	-1206.66980	-230.92514	1156.83276	-877.35364	-596.73303	994.05481	-1428.60742	-192.76607	848.87640	-903.93719				-291.43936	991.09430	-1095.74316	-620.37976	990.44946	-1142.47070	-641.60657	513.33508	-1023.01141	-245.70868	530.88000	-1172.07825	-631.67523	45.49733	-807.85034	-212.34959	38.47185	-1286.26099	
390	3.890	-542.36816	1700.33142	-1129.39209	-367.70114	1642.88867	-1236.31958							-618.93646	1489.45386	-1087.31567	-454.77988	1427.22925	-1152.90723							-730.60217	1162.95178	-1213.54102	-226.71765	1157.26379	-882.87335	-589.12598	992.63202	-1432.67041	-191.13124	847.53839	-906.38721	-495.70718	1018.95209	-947.97614	-287.14413	988.89178	-1102.63782	-616.39136	989.43860	-1149.44019	-639.86169	513.71008	-1029.10608	-241.21358	529.85132	-1180.42419	-632.54773	47.29599	-807.54376	-206.74280	36.42383	-1295.59729	
391	3.900	-537.51508	1699.54602	-1136.28711	-363.16846	1641.78369	-1243.84326							-614.24756	1488.20654	-1095.31958	-449.90286	1426.06250	-1160.93945							-725.35138	1160.96704	-1220.47131	-223.13290	1155.37683	-887.04376	-581.92896	992.21967	-1439.81970	-189.72597	845.38971	-910.42542				-283.11469	987.14398	-1110.93750	-612.33539	988.47729	-1157.43896	-638.11029	513.64288	-1034.45447	-236.93036	529.60657	-1189.33423	-633.33966	48.19636	-808.86359	-202.28731	35.39840	-1300.90393	
392	3.910	-532.66772	1698.66443	-1143.14197	-486.84320	1016.24664	-964.15540							-609.17310	1487.48376	-1103.83228	-444.85443	1424.99524	-1168.95679							-719.30042	1159.34229	-1227.21362	-219.68590	1154.73022	-896.00116	-575.12457	990.77789	-1445.67871	-186.86792	843.55927	-914.01685				-278.71298	986.34375	-1119.78320	-608.57727	987.70715	-1165.39563	-636.82544	513.25995	-1039.73523	-231.75877	528.77051	-1198.70959	-634.46997	50.38593	-809.57220	-200.27718	33.77369	-1306.23267	
393	3.920	-527.65277	1697.91895	-1149.11719										-604.16589	1486.07373	-1110.76477	-439.76199	1423.67810	-1176.47253							-713.90686	1157.26917	-1233.94092	-215.79866	1152.50500	-904.50183	-567.90820	990.16577	-1453.13367	-184.67975	842.17773	-918.69427				-273.93594	986.20264	-1129.41467	-603.24335	986.41455	-1172.87891	-633.79797	513.19360	-1046.04883	-226.88033	528.65649	-1208.69446	-633.98083	52.03020	-811.14752	-197.56091	31.14730	-1309.21167	
394	3.930	-522.68182	1696.83020	-1155.45471	-348.29355	1640.84131	-1263.98987							-599.00854	1484.93506	-1118.78467	-434.47549	1422.69043	-1184.05945							-707.22174	1156.18604	-1241.52600	-211.44887	1151.27832	-910.63843	-562.04047	988.38190	-1459.59338	-181.34987	840.26434	-924.75165				-268.88434	984.83887	-1137.29663	-598.19757	985.67206	-1181.14587	-632.44977	512.43109	-1051.48083	-221.60309	528.75439	-1216.66821	-635.28235	52.96854	-813.23547	-195.13377	29.54715	-1310.42773	
395	3.940	-517.54510	1695.92041	-1161.65881										-593.64807	1483.66711	-1126.73450	-429.10791	1421.56995	-1191.60413							-701.51843	1154.26184	-1248.10425	-206.39571	1149.69165	-917.75171	-555.59839	985.87323	-1464.78674	-178.39230	838.85718	-931.72711				-263.60815	983.24329	-1145.40039	-593.88336	985.09491	-1189.72742	-629.42126	513.15051	-1058.54968	-217.22234	528.25983	-1226.70093	-634.84509	54.43621	-813.51318	-193.45363	28.36493	-1311.48608	
396	3.950	-512.46234	1694.89246	-1167.94360	-466.31326	1011.96600	-993.14685							-588.13452	1482.61743	-1134.71606	-423.62613	1420.60852	-1199.28967							-696.05487	1151.96313	-1254.47290	-202.49756	1148.19543	-926.88354	-550.24390	981.37073	-1469.85339	-174.63501	836.45898	-938.58044				-258.32187	982.02594	-1154.21631	-588.07098	983.42224	-1198.10852	-627.39886	513.54779	-1064.91650	-211.89751	527.69550	-1238.58765	-635.15637	58.92372	-814.51874	-191.51961	26.18172	-1314.90869	
397	3.960	-507.41049	1693.61487	-1173.58728										-582.63019	1481.20520	-1141.92554	-418.05594	1419.62537	-1206.70569							-690.37421	1150.08911	-1260.59314	-198.06796	1145.79932	-935.22516	-544.98621	978.92426	-1474.54077	-170.92934	833.86743	-946.30145				-253.21327	981.55084	-1163.26782	-584.24445	982.71680	-1207.25500	-623.92474	512.68927	-1071.71826	-206.45030	526.71570	-1246.18250	-634.81128	59.55896	-816.02496	-190.94427	25.71914	-1318.13184	
398	3.970	-502.29269	1692.77319	-1180.12305										-577.19653	1480.09436	-1148.64722	-412.47079	1418.91174	-1214.06628							-684.34106	1148.14392	-1266.91492	-192.72063	1144.09351	-944.72583	-540.04095	975.67889	-1480.85132	-165.42491	832.58582	-957.12079				-248.16447	981.24469	-1172.25403	-578.23859	981.17017	-1215.59973	-620.02606	513.79791	-1079.46387	-200.21951	524.64349	-1253.37085	-633.71503	63.65837	-815.34863	-187.66846	24.64770	-1320.29346	
399	3.980	-497.01855	1692.35852	-1186.64600										-571.98334	1478.99438	-1155.86121	-406.91821	1418.59595	-1221.68506							-678.30591	1146.67041	-1273.40796	-187.01993	1141.96521	-952.58911				-161.46884	830.25146	-966.55450				-242.91739	980.98663	-1181.12817	-572.48065	979.75293	-1224.23096	-616.06287	513.34814	-1085.86951	-195.38704	523.87280	-1261.80286	-633.17841	65.30428	-818.45837	-187.01009	25.78987	-1320.54175	
400	3.990	-491.76221	1692.14221	-1191.99890	-530.92047	967.68439	-1491.89856							-566.41644	1478.70605	-1162.26404	-401.30142	1418.47986	-1229.10229							-671.62146	1144.89758	-1279.92090	-181.75926	1139.24402	-960.59741				-155.77368	829.00629	-978.78290				-237.59697	980.93170	-1189.84607	-567.85358	980.05273	-1233.66479	-612.03882	513.31970	-1093.20764	-189.04114	523.27570	-1269.78296	-632.77435	70.11327	-820.37561	-186.85233	25.71115	-1322.87476	
401	4.000	-486.39740	1692.18567	-1198.40576	-526.73773	962.66443	-1495.87354							-560.95544	1478.56653	-1169.87463	-395.75729	1418.54211	-1236.54443							-665.36212	1143.65771	-1286.18774	-175.96022	1137.84375	-971.95038				-150.54854	826.56396	-989.27625				-232.07478	981.09015	-1198.33386	-561.67114	978.66022	-1242.24365	-608.16852	513.71399	-1101.81860	-183.64514	522.30182	-1278.14832	-631.23230	74.12447	-822.35876	-185.91859	25.62001	-1324.54272	
402	4.010	-481.04276	1692.29846	-1204.06201										-555.48303	1478.66895	-1177.08276	-390.20663	1418.77026	-1244.18042							-659.16443	1142.76013	-1291.95081	-169.81189	1135.33252	-982.01306				-145.59883	824.78607	-1002.02765				-226.28572	981.50836	-1206.52368	-555.37903	977.52295	-1251.11658	-604.33221	514.56598	-1111.10645	-178.24718	523.56177	-1282.19409	-630.09888	79.04333	-824.10474	-184.99872	25.99901	-1325.13086	
403	4.020	-475.63806	1692.75977	-1210.12488										-549.99365	1479.05737	-1183.98669	-384.58841	1419.33838	-1251.51196							-652.71912	1142.83997	-1298.60266	-161.03217	1136.88293	-987.88666				-138.75754	823.89185	-1016.52094				-220.28696	982.15924	-1214.45703	-549.58447	977.44537	-1260.25586	-599.53638	514.85565	-1120.49329				-629.14233	77.49807	-837.10065	-184.82338	26.27868	-1326.94739	
